<svg xmlns="http://www.w3.org/2000/svg" viewBox="0 0 64 64">
  <defs>
    <linearGradient id="bg" x1="12" y1="8" x2="52" y2="58" gradientUnits="userSpaceOnUse">
      <stop offset="0" stop-color="#10131b"/>
      <stop offset="1" stop-color="#06070b"/>
    </linearGradient>
    <radialGradient id="glow" cx="32" cy="28" r="29" gradientUnits="userSpaceOnUse">
      <stop offset="0" stop-color="#00d4ff" stop-opacity=".16"/>
      <stop offset=".58" stop-color="#00d4ff" stop-opacity=".05"/>
      <stop offset="1" stop-color="#00d4ff" stop-opacity="0"/>
    </radialGradient>
  </defs>

  <rect width="64" height="64" rx="13" fill="#06070b"/>
  <rect x="3.5" y="3.5" width="57" height="57" rx="11" fill="url(#bg)" stroke="#1d2430" stroke-width="3"/>
  <rect x="8" y="8" width="48" height="48" rx="7" fill="url(#glow)"/>

  <path d="M17 9v46M32 9v46M47 9v46M9 17h46M9 32h46M9 47h46"
        fill="none" stroke="#00d4ff" stroke-width="1" opacity=".06"/>

  <path d="M22 15h-8v8M42 15h8v8M22 49h-8v-8M42 49h8v-8"
        fill="none" stroke="#00d4ff" stroke-width="3.5" stroke-linecap="square" stroke-linejoin="miter"/>

  <path d="M23 23h18v18H23z" fill="#151a24" stroke="#00d4ff" stroke-width="3"/>
  <path d="M29 27.5l9 4.5-9 4.5z" fill="#f4f8fc"/>
</svg>
